<?xml version="1.0" standalone="no"?>
<!DOCTYPE svg PUBLIC "-//W3C//DTD SVG 20010904//EN"
 "http://www.w3.org/TR/2001/REC-SVG-20010904/DTD/svg10.dtd">
<svg version="1.0" xmlns="http://www.w3.org/2000/svg"
 width="291.000000pt" height="282.000000pt" viewBox="0 0 291.000000 282.000000"
 preserveAspectRatio="xMidYMid meet">

<g transform="translate(0.000000,282.000000) scale(0.100000,-0.100000)"
fill="#000000" stroke="none">
<path d="M1355 2760 l-120 -5 -5 -85 -5 -85 -49 -8 c-70 -12 -76 -7 -76 61 0
32 -6 66 -13 76 -13 17 -17 17 -103 1 -49 -9 -105 -18 -124 -19 -57 -3 -60 -8
-59 -109 0 -158 11 -219 43 -258 16 -19 37 -52 47 -74 16 -36 17 -41 2 -57 -9
-10 -22 -18 -29 -18 -7 0 -90 -25 -183 -56 -190 -63 -183 -56 -174 -163 2 -31
0 -62 -5 -70 -7 -9 -50 -16 -143 -22 -74 -5 -176 -12 -226 -15 l-93 -6 0 -34
c0 -19 7 -46 16 -59 13 -20 16 -69 17 -327 0 -167 -3 -322 -7 -346 l-8 -42
103 5 c57 3 133 10 169 15 36 5 114 11 174 12 l110 3 17 -48 c27 -76 83 -176
137 -247 30 -40 44 -71 38 -86 -4 -12 -64 -14 -372 -14 l-367 0 6 -302 c4
-175 10 -305 16 -311 7 -7 225 -6 633 2 781 15 975 19 1263 26 127 3 374 8
550 11 176 3 324 8 329 11 11 7 0 594 -11 603 -5 3 -75 3 -158 -1 -82 -4 -248
-7 -367 -8 -253 -1 -243 -7 -174 98 55 84 83 139 116 226 l26 70 104 3 c58 1
181 -4 274 -11 189 -14 204 -11 191 39 -12 48 -23 276 -24 516 -1 156 -4 229
-12 234 -6 4 -111 9 -233 11 -121 3 -225 9 -231 15 -5 5 -14 50 -20 101 l-10
91 -35 9 c-19 4 -55 14 -80 21 -25 8 -74 21 -110 31 -142 36 -170 46 -170 60
0 25 46 119 69 139 20 18 21 28 21 171 0 162 -6 184 -48 171 -10 -4 -34 0 -53
8 -19 7 -71 16 -116 19 l-83 5 0 -66 c0 -37 -4 -73 -9 -80 -5 -9 -25 -12 -62
-10 l-54 3 -3 70 c-1 39 -4 79 -7 91 -5 24 -6 24 -240 14z m205 -97 c3 -45 7
-84 10 -86 7 -7 183 -28 188 -22 3 3 4 36 4 74 -2 82 7 93 63 81 22 -5 67 -13
100 -17 l60 -8 8 -119 c9 -127 6 -161 -17 -169 -8 -3 -46 3 -84 13 -37 10 -77
19 -88 20 -10 0 -55 4 -99 9 -101 12 -386 12 -479 1 -81 -10 -210 -32 -309
-53 -61 -13 -69 -12 -76 2 -5 9 -10 71 -10 138 -2 117 -1 123 21 136 21 13 98
27 173 31 l30 1 3 -70 c2 -38 7 -74 12 -79 5 -5 46 -3 95 5 103 15 110 23 102
114 -4 41 -2 66 6 74 8 8 53 11 147 9 l135 -3 5 -82z m-293 -241 c6 -4 13 -25
15 -47 4 -49 22 -53 26 -5 5 47 19 62 56 58 29 -3 31 -6 36 -52 6 -55 26 -73
35 -29 15 76 17 78 65 78 l45 0 3 -53 c4 -62 22 -66 34 -7 12 56 21 64 63 51
32 -10 34 -14 37 -56 4 -54 19 -56 34 -3 10 34 15 38 46 41 39 3 48 -10 48
-75 0 -46 26 -43 37 5 7 32 13 37 39 40 45 4 56 -15 36 -63 -14 -33 -16 -70
-14 -202 2 -154 2 -163 -18 -173 -11 -6 -25 -8 -30 -5 -16 10 -698 4 -874 -8
-27 -2 -31 2 -37 33 -5 19 -8 91 -8 159 0 116 -2 126 -25 162 -15 21 -26 45
-26 53 0 21 26 38 62 39 32 2 33 0 42 -46 12 -61 30 -55 34 10 3 47 5 52 34
62 55 19 64 15 74 -36 8 -44 26 -62 31 -31 12 83 14 88 46 97 42 12 40 12 54
3z m798 -262 c217 -67 237 -75 247 -99 5 -14 8 -50 6 -80 -3 -56 -3 -56 -42
-66 -33 -8 -40 -6 -52 10 -8 10 -12 26 -9 35 3 9 -3 24 -12 32 -17 15 -30 19
-118 38 -62 13 -119 31 -132 42 -14 11 -17 65 -7 93 6 14 15 16 48 11 23 -4
55 -11 71 -16z m-1160 -55 l0 -58 -95 -29 c-52 -16 -111 -33 -130 -37 -31 -6
-35 -11 -41 -45 -3 -21 -11 -41 -17 -45 -14 -8 -54 -7 -70 3 -13 8 -17 123 -4
142 10 16 85 51 151 69 31 9 63 19 71 22 42 18 116 41 125 39 6 -2 10 -29 10
-61z m1581 -230 c65 -3 161 -6 212 -7 84 -3 93 -5 97 -23 2 -11 6 -162 9 -337
3 -178 10 -328 16 -343 14 -37 -2 -55 -43 -50 -103 12 -562 26 -942 28 -307 2
-546 -2 -790 -14 -192 -9 -411 -19 -487 -23 -75 -3 -178 -10 -230 -15 -51 -5
-100 -9 -108 -9 -8 0 -36 -3 -62 -7 -59 -9 -67 5 -43 70 14 34 16 60 11 112
-3 38 -6 154 -7 258 0 170 -2 195 -21 233 -11 23 -18 48 -15 55 5 14 169 31
387 42 368 18 578 25 910 31 206 4 376 7 377 8 4 3 626 -4 729 -9z m-559 -915
c2 -150 -3 -166 -70 -226 l-35 -30 -158 0 -159 1 -3 70 c-3 79 -19 105 -63
105 -37 0 -49 -24 -49 -95 0 -95 3 -94 -169 -94 l-149 -1 -44 48 -45 48 -7
138 c-5 83 -4 142 2 148 5 5 101 11 213 14 112 3 205 7 207 8 1 2 120 2 265 2
l262 -1 2 -135z m306 101 c-2 -43 -78 -190 -145 -283 -50 -68 -50 -68 -98 -68
-76 0 -76 -2 31 139 26 33 68 104 94 156 l47 96 36 -3 c35 -3 37 -5 35 -37z
m-1474 -16 c59 -121 100 -186 175 -273 49 -57 53 -67 35 -78 -12 -7 -98 -10
-102 -3 -16 26 -75 108 -88 122 -21 23 -119 220 -119 239 0 23 12 29 49 26 28
-2 38 -9 50 -33z m2063 -359 c10 -15 10 -528 0 -544 -9 -14 -95 -17 -692 -27
-190 -3 -430 -8 -535 -11 -542 -14 -1462 -20 -1473 -9 -4 4 -7 39 -8 78 0 40
-2 159 -4 265 -2 108 1 197 6 202 5 5 83 10 174 10 149 1 678 11 1345 24 138
3 417 8 620 12 204 3 371 7 372 8 10 9 189 1 195 -8z"/>
<path d="M1405 2157 c-4 -13 -5 -48 -3 -78 3 -47 6 -54 26 -57 21 -3 22 -1 22
77 0 74 -2 81 -20 81 -12 0 -22 -9 -25 -23z"/>
<path d="M1367 1753 c-2 -4 -10 -42 -17 -83 -19 -114 -41 -224 -46 -229 -11
-11 -23 19 -32 79 -5 36 -17 91 -26 123 -9 32 -13 69 -10 83 6 23 4 24 -45 24
-58 0 -59 -2 -36 -76 25 -84 57 -216 71 -298 19 -103 27 -116 68 -116 41 0 50
19 71 149 16 96 29 118 45 77 5 -15 10 -36 10 -47 0 -22 37 -159 45 -167 3 -3
20 -6 38 -6 31 -1 33 1 49 59 10 33 17 74 18 92 0 17 5 44 11 59 5 16 14 58
19 94 11 75 26 147 35 173 6 15 1 17 -44 17 -42 0 -49 -3 -44 -16 6 -17 -13
-194 -29 -256 -14 -60 -33 -47 -47 31 -7 38 -23 107 -35 152 -19 68 -27 85
-44 87 -11 2 -22 0 -25 -5z"/>
<path d="M1756 1748 c-3 -7 -7 -26 -9 -43 -7 -41 -61 -283 -94 -412 -5 -21 -2
-23 35 -23 42 0 52 12 52 71 0 34 15 45 69 52 55 7 70 -9 71 -75 l0 -46 50 -4
c29 -2 50 1 50 7 0 6 -19 82 -41 170 -48 187 -60 239 -63 280 -1 29 -3 30 -59
33 -40 2 -58 -1 -61 -10z m70 -115 c0 -10 6 -55 13 -101 8 -45 12 -85 10 -87
-2 -2 -22 -5 -44 -7 -36 -3 -40 0 -43 21 -2 13 3 49 11 80 8 31 18 68 21 84 7
30 32 37 32 10z"/>
<path d="M2058 1513 l2 -248 44 -3 44 -3 -4 85 c-4 88 7 141 28 134 12 -4 39
-82 59 -170 6 -27 16 -48 22 -48 7 0 30 -3 51 -7 32 -5 38 -4 30 8 -13 20 -34
81 -34 99 0 8 -6 26 -13 40 -26 49 -26 69 -3 98 60 71 58 164 -6 225 l-39 37
-92 0 -92 0 3 -247z m142 187 c0 -5 6 -10 14 -10 18 0 26 -22 26 -75 0 -52
-23 -83 -67 -91 l-33 -6 0 84 c0 52 5 89 12 96 15 15 48 16 48 2z"/>
<path d="M2411 1505 l1 -255 53 0 53 0 -9 38 c-15 66 -11 147 9 172 21 26 42
20 42 -13 0 -12 6 -39 14 -62 8 -22 20 -60 27 -85 16 -58 16 -58 68 -66 l43
-7 -7 34 c-4 18 -11 40 -15 49 -11 23 -51 121 -62 155 -6 17 -15 38 -19 47 -5
10 -9 25 -9 33 0 22 57 135 81 161 32 34 24 45 -27 42 -42 -3 -47 -6 -58 -38
-26 -73 -69 -150 -83 -150 -13 0 -15 16 -11 100 l4 100 -49 0 -48 0 2 -255z"/>
<path d="M915 1728 c2 -13 6 -126 7 -252 l3 -228 50 6 c28 3 80 6 118 6 l67 0
0 56 0 56 -31 -26 c-30 -26 -101 -37 -113 -18 -6 10 -10 379 -5 402 3 12 -8
16 -49 18 -50 3 -52 2 -47 -20z"/>
<path d="M546 1731 c-2 -3 0 -40 4 -81 5 -41 9 -129 10 -195 1 -144 17 -192
73 -218 19 -9 44 -17 56 -17 36 0 86 30 111 68 24 35 25 40 26 244 l1 208 -37
0 c-41 0 -54 -8 -41 -24 5 -6 11 -95 13 -197 3 -172 2 -188 -16 -208 -24 -26
-57 -27 -80 -2 -15 17 -18 47 -22 223 l-4 203 -45 1 c-25 1 -47 -1 -49 -5z"/>
<path d="M210 1713 c-1 -5 -2 -124 -3 -265 l-2 -258 55 6 c113 10 136 15 171
39 26 17 41 37 53 71 15 44 15 51 -1 102 -11 35 -24 57 -35 60 -23 6 -23 24 2
64 24 40 26 105 4 136 -27 39 -67 52 -159 52 -47 0 -85 -3 -85 -7z m170 -90
c13 -38 12 -46 -3 -78 -13 -28 -22 -35 -46 -35 -17 0 -31 6 -35 16 -8 22 -8
129 1 138 4 4 21 6 38 4 25 -3 32 -9 45 -45z m-13 -178 c23 -6 43 -51 43 -95
0 -43 -36 -82 -74 -78 l-31 3 -3 79 c-3 91 1 109 25 102 10 -2 28 -7 40 -11z"/>
<path d="M1646 543 c-8 -42 -5 -103 5 -103 5 0 9 19 9 43 0 23 3 52 6 65 4 12
2 22 -4 22 -6 0 -13 -12 -16 -27z"/>
<path d="M1900 511 c0 -33 5 -63 10 -66 6 -4 10 18 10 59 0 37 -4 66 -10 66
-6 0 -10 -26 -10 -59z"/>
<path d="M2051 511 c-1 -35 2 -61 5 -58 10 10 12 80 3 102 -5 13 -8 -1 -8 -44z"/>
<path d="M1107 553 c-4 -6 -3 -23 2 -39 l8 -29 7 29 c7 28 -6 57 -17 39z"/>
<path d="M1556 503 c9 -78 14 -79 14 -5 0 35 -4 62 -10 62 -6 0 -8 -21 -4 -57z"/>
<path d="M753 489 c0 -33 3 -57 8 -53 11 6 12 101 1 108 -4 2 -8 -22 -9 -55z"/>
<path d="M2290 516 c0 -40 19 -60 22 -22 0 14 1 31 2 38 1 6 -5 13 -11 16 -9
2 -13 -8 -13 -32z"/>
<path d="M424 524 c3 -9 6 -36 6 -60 0 -24 5 -44 10 -44 6 0 10 25 10 55 0 42
3 55 15 55 11 0 15 -12 15 -45 0 -27 5 -45 11 -45 8 0 9 11 5 31 -3 17 -6 40
-6 50 0 15 -7 19 -36 19 -29 0 -35 -3 -30 -16z"/>
<path d="M1374 527 c-2 -7 0 -31 5 -52 l9 -40 1 53 c1 51 -4 65 -15 39z"/>
<path d="M1807 523 c-4 -3 -7 -25 -6 -47 1 -39 1 -40 9 -11 4 17 11 38 15 48
7 17 -5 24 -18 10z"/>
<path d="M2220 495 c0 -19 4 -35 9 -35 5 0 11 16 13 35 3 24 0 35 -9 35 -8 0
-13 -13 -13 -35z"/>
<path d="M690 481 c0 -22 5 -43 10 -46 6 -4 10 12 10 39 0 25 -4 46 -10 46 -5
0 -10 -18 -10 -39z"/>
<path d="M2002 490 c0 -19 2 -27 5 -17 2 9 2 25 0 35 -3 9 -5 1 -5 -18z"/>
<path d="M2100 507 c0 -9 -3 -24 -6 -34 -6 -15 -4 -16 7 -5 7 6 21 12 31 12
10 0 18 7 18 15 0 8 -4 15 -9 15 -5 0 -16 3 -25 6 -10 4 -16 1 -16 -9z"/>
<path d="M1229 508 c-6 -24 -5 -70 2 -74 5 -3 9 13 9 35 0 23 -2 41 -5 41 -3
0 -5 -1 -6 -2z"/>
<path d="M1437 503 c-4 -3 -7 -18 -7 -32 0 -28 14 -19 25 17 6 21 -4 30 -18
15z"/>
<path d="M531 488 c1 -7 5 -24 9 -38 7 -23 8 -23 9 -3 1 12 4 28 7 37 4 11 1
16 -10 16 -9 0 -16 -6 -15 -12z"/>
<path d="M930 484 c0 -8 5 -12 10 -9 6 3 10 10 10 16 0 5 -4 9 -10 9 -5 0 -10
-7 -10 -16z"/>
<path d="M2373 465 c1 -39 12 -35 22 8 6 20 4 27 -8 27 -11 0 -15 -10 -14 -35z"/>
<path d="M651 475 c0 -12 -6 -26 -13 -33 -14 -14 -7 -24 11 -13 7 5 11 20 8
37 -2 18 -5 21 -6 9z"/>
<path d="M846 471 c-5 -14 -4 -27 3 -34 15 -15 18 -7 11 28 -6 29 -6 29 -14 6z"/>
<path d="M1000 482 c0 -5 9 -17 20 -27 18 -16 20 -16 20 -2 0 9 -9 21 -20 27
-11 6 -20 7 -20 2z"/>
<path d="M590 475 c0 -5 5 -17 10 -25 5 -8 10 -10 10 -5 0 6 -5 17 -10 25 -5
8 -10 11 -10 5z"/>
<path d="M802 455 c0 -16 2 -22 5 -12 2 9 2 23 0 30 -3 6 -5 -1 -5 -18z"/>
<path d="M2198 374 c-12 -11 -10 -124 2 -124 6 0 10 7 10 15 0 9 7 18 15 22
14 5 14 7 1 22 -8 9 -16 29 -18 44 -1 16 -6 25 -10 21z"/>
<path d="M1209 354 c-6 -44 -2 -123 6 -121 10 4 11 114 1 124 -3 4 -7 2 -7 -3z"/>
<path d="M1343 353 c-20 -7 -18 -123 2 -123 12 0 15 14 15 65 0 36 -1 65 -2
64 -2 0 -9 -3 -15 -6z"/>
<path d="M2042 313 c-9 -32 -10 -49 -2 -57 7 -7 10 -6 10 2 0 7 9 32 20 54 24
50 24 48 2 48 -13 0 -21 -13 -30 -47z"/>
<path d="M547 343 c-4 -3 -7 -36 -7 -71 0 -75 9 -78 16 -6 2 27 7 57 10 67 5
17 -6 23 -19 10z"/>
<path d="M1030 331 c0 -10 -7 -32 -15 -47 -8 -16 -15 -38 -14 -49 0 -15 4 -12
16 13 20 38 30 41 39 7 3 -14 10 -25 15 -25 12 0 11 8 -6 68 -16 51 -35 70
-35 33z"/>
<path d="M1386 337 c3 -10 9 -15 12 -12 3 3 0 11 -7 18 -10 9 -11 8 -5 -6z"/>
<path d="M224 311 c3 -17 9 -44 12 -61 7 -32 21 -39 31 -15 3 9 -2 24 -11 34
-9 10 -16 27 -16 39 0 11 -5 24 -11 28 -8 5 -10 -2 -5 -25z"/>
<path d="M2448 299 c-4 -48 -2 -52 23 -36 23 14 25 43 5 63 -21 21 -23 18 -28
-27z"/>
<path d="M2353 290 c0 -25 2 -35 4 -22 2 12 2 32 0 45 -2 12 -4 2 -4 -23z"/>
<path d="M2546 322 c-4 -7 0 -22 8 -34 17 -24 21 -9 7 26 -5 14 -10 16 -15 8z"/>
<path d="M2613 290 c0 -25 2 -35 4 -22 2 12 2 32 0 45 -2 12 -4 2 -4 -23z"/>
<path d="M2670 315 c0 -8 2 -15 4 -15 2 0 6 7 10 15 3 8 1 15 -4 15 -6 0 -10
-7 -10 -15z"/>
<path d="M2708 304 c3 -15 8 -22 14 -16 9 9 1 42 -12 42 -4 0 -5 -12 -2 -26z"/>
<path d="M277 307 c-3 -8 1 -21 9 -27 8 -7 14 -21 14 -32 0 -28 23 -17 31 15
6 21 4 27 -8 27 -9 0 -21 7 -28 16 -11 15 -12 15 -18 1z"/>
<path d="M1850 278 c0 -47 14 -41 23 10 5 24 3 32 -8 32 -11 0 -15 -12 -15
-42z"/>
<path d="M1934 266 l10 -51 9 35 c5 19 12 42 16 50 6 11 2 15 -19 16 l-27 1
11 -51z"/>
<path d="M2301 290 c0 -33 1 -34 11 -12 8 17 8 26 0 34 -9 9 -12 4 -11 -22z"/>
<path d="M1760 284 c0 -28 15 -25 23 6 3 13 0 20 -9 20 -8 0 -14 -10 -14 -26z"/>
<path d="M1800 300 c0 -5 5 -10 11 -10 5 0 7 5 4 10 -3 6 -8 10 -11 10 -2 0
-4 -4 -4 -10z"/>
<path d="M402 266 c2 -22 9 -41 16 -44 17 -5 15 40 -3 64 -14 18 -15 17 -13
-20z"/>
<path d="M466 284 c-9 -24 -7 -62 4 -69 6 -3 10 4 10 17 0 13 3 33 6 46 7 25
-11 31 -20 6z"/>
<path d="M620 286 c0 -9 -5 -25 -12 -36 -7 -10 -8 -23 -4 -27 5 -4 11 -3 13 4
2 7 11 9 19 6 19 -7 19 41 -1 57 -12 10 -15 9 -15 -4z"/>
<path d="M686 292 c-2 -4 -1 -23 4 -42 9 -40 10 -39 15 13 4 33 -6 49 -19 29z"/>
<path d="M762 288 c-16 -16 -15 -43 3 -58 13 -11 15 -8 15 14 0 14 5 26 10 26
6 0 10 7 10 15 0 18 -21 20 -38 3z"/>
<path d="M1441 273 c0 -25 1 -26 9 -8 12 27 12 35 0 35 -5 0 -10 -12 -9 -27z"/>
<path d="M1517 285 c-4 -8 -2 -17 3 -20 6 -4 10 3 10 14 0 25 -6 27 -13 6z"/>
<path d="M1592 280 c0 -14 2 -19 5 -12 2 6 2 18 0 25 -3 6 -5 1 -5 -13z"/>
<path d="M1642 275 c0 -16 2 -22 5 -12 2 9 2 23 0 30 -3 6 -5 -1 -5 -18z"/>
<path d="M2087 293 c-12 -11 -8 -45 5 -41 17 6 30 48 14 48 -7 0 -16 -3 -19
-7z"/>
<path d="M1700 260 c0 -11 5 -20 10 -20 6 0 10 9 10 20 0 11 -4 20 -10 20 -5
0 -10 -9 -10 -20z"/>
<path d="M2667 274 c-10 -11 -8 -54 2 -54 14 0 25 40 14 51 -5 5 -12 6 -16 3z"/>
<path d="M1122 250 c0 -14 2 -19 5 -12 2 6 2 18 0 25 -3 6 -5 1 -5 -13z"/>
<path d="M381 234 c0 -11 3 -14 6 -6 3 7 2 16 -1 19 -3 4 -6 -2 -5 -13z"/>
<path d="M1261 224 c0 -11 3 -14 6 -6 3 7 2 16 -1 19 -3 4 -6 -2 -5 -13z"/>
</g>
</svg>
